<svg width="108" height="53" viewBox="0 0 108 53" fill="none" xmlns="http://www.w3.org/2000/svg">
<mask id="mask0_12524_79" style="mask-type:luminance" maskUnits="userSpaceOnUse" x="0" y="0" width="108" height="53">
<path d="M107.4 0H0V52.3H107.4V0Z" fill="white"/>
</mask>
<g mask="url(#mask0_12524_79)">
<path fill-rule="evenodd" clip-rule="evenodd" d="M-0.00805664 52.4749C1.74342 51.7263 4.6032 51.0052 6.54403 50.3795C10.1033 49.2323 15.8768 47.0675 19.3256 45.6041C21.4897 44.6858 23.3053 43.7524 25.2621 42.8078C17.7896 43.6588 10.8476 47.3957 4.9932 48.3979C5.32635 47.1384 8.48685 43.2475 9.71769 42.0582L15.6478 37.0813C13.334 37.4226 9.55997 39.4624 8.08115 41.0128C7.38664 41.7175 6.21077 42.7283 5.67057 43.4649C3.58608 46.3072 3.32119 46.5275 1.39453 49.9499C0.97352 50.6978 0.360267 51.9544 -0.00805664 52.4746V52.4749Z" fill="#3A79FF"/>
<path fill-rule="evenodd" clip-rule="evenodd" d="M58.5905 21.663C55.9875 22.4004 54.3475 21.827 54.2305 19.011L51.9255 17.8525C51.3816 18.8315 51.1609 19.9617 51.5422 21.0935C52.8148 24.8689 57.7049 23.7265 58.5905 21.663Z" fill="#FFC037"/>
<path fill-rule="evenodd" clip-rule="evenodd" d="M83.4742 19.5772C83.3097 18.8273 79.7188 17.5746 79.2007 17.4171C74.3827 15.9526 69.5427 14.8876 64.7546 13.2859C58.3481 11.1428 52.3043 8.28203 45.7129 7.56225C41.2446 7.07431 38.4429 6.993 33.8819 7.35381C30.9361 7.58684 29.5669 8.39888 28.447 7.56114L25.0611 5.19446C19.346 1.64842 13.4145 -0.928246 5.86133 0.318616C6.05135 0.415227 6.54411 0.72877 6.80758 0.887057C10.4467 3.79167 13.4953 7.44672 12.7732 12.4681C12.5865 13.7666 12.2058 15.0004 11.6094 16.1792L11.0934 17.1343C11.7064 16.8545 12.2603 16.295 12.8156 15.9066C13.4672 15.4508 13.7351 15.0136 14.2457 14.3843C16.881 11.1368 14.5835 4.69796 11.2287 2.54754C14.9158 2.29671 19.6385 4.64093 22.4444 6.92615C23.9066 8.09708 25.8935 9.61893 27.2511 10.8813L23.0947 13.0656C16.6191 16.4296 10.8141 21.6765 8.10412 28.593C7.202 30.8953 5.99848 36.8868 6.88257 39.3201C9.11308 31.432 11.8513 25.1242 20.6563 22.5705C23.2486 21.8186 22.1125 22.2715 23.5028 20.3976C24.1698 19.4987 24.886 18.3697 25.8574 17.7707C25.1054 20.4312 24.3906 21.8244 24.8439 24.8589C25.1271 26.7545 26.1489 29.2437 27.6684 30.4358C26.3548 23.7882 26.8245 22.0342 30.907 17.7708C31.3649 17.3503 31.7169 17.0013 32.2751 16.7948C32.0969 17.5267 31.4132 18.767 31.1365 19.7688C30.5305 21.9625 30.3624 24.5639 31.0825 26.736C31.473 27.9134 32.1266 28.4678 32.4537 29.2366C32.1708 21.2629 37.2915 18.7175 44.6083 17.0476C45.232 16.9053 46.9679 16.7899 47.4341 16.4399C45.9618 15.3776 44.0571 15.1127 43.4201 14.6342C50.5877 13.1043 52.6018 15.8754 58.5255 18.777C60.8883 19.9343 61.4777 19.8085 64.1512 19.7388C63.9872 20.2508 63.8268 20.6279 63.5465 20.8543C65.0724 21.1353 74.1371 21.1156 77.7448 21.758C74.2732 24.4582 55.6572 25.2848 48.3897 29.7999C45.9089 31.3413 46.1903 31.4794 44.8265 32.4241C43.388 33.4206 43.1296 34.1951 42.1291 35.1746C41.9411 35.3586 42.0599 35.2282 41.8813 35.4478C41.8589 35.4754 41.8194 35.5943 41.8035 35.5678C41.7869 35.5401 41.7481 35.65 41.727 35.6765L47.144 35.6144C47.674 34.6678 48.0131 34.4586 48.8739 33.8195L49.8979 33.0691C50.1675 32.9046 50.6064 32.5976 50.9948 32.4028C55.9778 29.9021 64.589 31.0312 69.5268 31.958C70.7771 32.1926 71.2787 32.8674 72.0223 32.3578C74.1881 30.8736 84.0341 22.1314 83.4744 19.5772H83.4742Z" fill="#3A79FF"/>
<path fill-rule="evenodd" clip-rule="evenodd" d="M68.221 38.2314C68.2654 38.2562 68.3331 38.2257 68.364 38.2842C68.5667 38.6683 68.0968 38.3627 69.2499 38.4161L80.2909 38.7256C86.9894 39.5 91.972 41.4097 98.1936 38.6966C97.4365 40.1001 97.2862 40.0985 96.3226 40.8663C92.5188 43.8973 86.0122 43.6002 81.4932 43.6964L65.5893 43.713C65.0099 43.8742 63.2694 45.6204 62.9726 45.8578C62.5501 46.1958 63.0298 46.0518 62.475 46.0803L62.4036 47.2763C63.4592 47.1183 63.8336 46.8866 64.7582 46.459L66.1359 45.6312C66.2389 45.5579 66.3319 45.4923 66.4417 45.4191L67.0405 46.1058C69.2116 46.172 71.4258 46.0917 73.5291 46.1831C75.5699 46.2719 77.7699 46.3942 79.7461 46.4506C88.9411 46.7128 91.894 49.431 101.038 43.0657L102.8 41.5867C102.868 41.5027 105.224 39.3999 105.692 38.731L106.735 37.4103C106.962 37.13 107.247 36.8074 107.408 36.4828C107.002 36.2845 103.581 36.7601 102.73 36.8046C95.9933 37.158 94.5354 36.8418 87.8031 36.1434L88.268 37.4902C87.1841 37.3607 86.6839 36.9159 86.1516 36.4176C85.0585 35.3951 85.9679 35.5219 83.9248 35.3357L84.3757 37.3154C83.6089 37.2036 82.9297 36.9023 82.4527 36.4243C82.4315 36.403 82.4024 36.3704 82.3815 36.3489L82.1647 36.1245C82.004 35.9497 81.8312 35.6928 81.6407 35.5088L80.3859 35.628L80.7982 36.9958C78.7761 36.6777 79.3537 36.855 78.2488 35.6789L71.1699 35.6819C70.8533 35.8065 70.3224 37.4402 68.221 38.2314Z" fill="#FD2744"/>
<path fill-rule="evenodd" clip-rule="evenodd" d="M62.475 46.0803C63.0298 46.0518 62.5501 46.1957 62.9726 45.8577C63.2693 45.6203 65.0099 43.8742 65.5891 43.7129L81.4932 43.6963C86.0122 43.6001 92.5188 43.8972 96.3226 40.8662C97.2862 40.0984 97.4365 40.1 98.1936 38.6965C91.9719 41.4096 86.9894 39.5 80.2909 38.7256L69.2499 38.4161C68.0966 38.3626 68.5667 38.6683 68.364 38.2842C68.333 38.2257 68.2654 38.2562 68.2209 38.2313C66.9684 39.1263 60.8688 38.8946 58.926 38.7934L59.0767 44.4889C60.9308 44.3537 61.8629 44.3316 62.475 46.0803Z" fill="#D91630"/>
<path fill-rule="evenodd" clip-rule="evenodd" d="M52.9984 37.5067C52.2488 37.4201 50.3907 37.5715 49.4909 37.5957C45.4589 37.7036 42.9311 37.492 39.1124 37.4386C36.1637 37.3974 35.2594 36.666 34.6994 37.632C33.0029 40.5582 32.408 40.689 33.7224 44.0177C34.4317 44.0431 35.1765 43.6438 35.9239 43.4241C37.9376 42.8319 41.4963 42.7604 43.5917 42.7798C45.2711 42.7953 47.0519 42.9871 48.6765 43.2261C50.696 43.5229 51.2527 44.0196 52.9427 44.5951L52.9984 37.5066V37.5067Z" fill="#183644"/>
<path fill-rule="evenodd" clip-rule="evenodd" d="M59.1868 50.7666L60.0054 50.0658C60.0287 49.9857 60.0794 49.9826 60.1083 49.9355C59.3088 49.9443 58.7594 49.8582 58.1418 49.5067C58.1886 49.1512 59.0521 48.4267 59.1693 47.1139C58.2475 47.465 56.6719 49.3928 55.5166 49.898C54.0901 50.5218 52.1538 49.8596 52.0906 47.2999C48.3386 45.5574 48.7137 45.6433 44.3455 46.4114L51.7899 51.007C52.9232 51.6979 54.7638 52.6203 56.2641 52.2652C57.1859 52.0469 58.4884 51.3112 59.1868 50.7666Z" fill="#3A79FF"/>
<path fill-rule="evenodd" clip-rule="evenodd" d="M53.889 35.7504C55.3708 35.4148 54.8436 35.1014 56.1479 33.4133C57.3578 34.8252 57.4406 37.3094 58.8275 35.5178L60.4731 33.5896L61.5839 36.8643C62.5165 36.6264 63.8882 34.8974 64.6809 34.1099C65.1213 34.7935 65.4794 36.4943 65.5097 37.3147C65.5457 37.2881 65.5845 37.2462 65.6082 37.2229L68.3532 33.9555C66.2082 33.5295 62.9004 32.9301 60.8207 32.8558C56.5684 32.704 56.607 32.9575 52.8535 33.5325C53.109 34.3127 53.5499 35.0727 53.889 35.7504Z" fill="white"/>
<path fill-rule="evenodd" clip-rule="evenodd" d="M33.2329 36.5016C32.433 36.593 30.5227 37.1474 29.8339 37.6262C29.1517 38.1002 28.5835 39.1173 28.1874 40.277C27.6421 41.8738 28.6129 43.4632 29.5514 44.7902C30.2722 45.8093 30.7544 47.0943 31.5772 46.9102C32.0701 46.7999 31.9511 46.7576 32.1523 46.441C32.1643 46.4221 32.4912 45.8496 32.5314 45.7639C32.9806 44.8076 32.3 44.2483 31.8476 42.4994C31.4046 40.7864 31.0869 40.8446 31.9815 39.3416C32.5018 38.4675 33.2536 37.3927 33.2329 36.5016Z" fill="#1E4955"/>
<path fill-rule="evenodd" clip-rule="evenodd" d="M53.8869 49.0287C54.8182 49.1304 55.8343 48.0001 56.2704 47.2299C56.9149 46.0918 57.0842 45.3446 57.3291 44.0279C59.0713 34.6632 54.3129 34.9964 53.9356 37.1929C53.8158 37.8914 54.2204 40.3571 54.2393 41.3227C54.2643 42.5926 54.2533 44.0334 54.2217 45.3505C54.1951 46.4513 53.6818 48.2904 53.8869 49.0287Z" fill="#1A3A49"/>
</g>
</svg>
